<svg width="1680pt" height="1332pt" version="1.0" viewBox="0 0 1680 1332" xmlns="http://www.w3.org/2000/svg">
 <g transform="translate(0 1332) scale(.1 -.1)" fill="#ffffff">
  <path d="m6398 12242-1867-1077v-4170l918-542c1075-635 2814-1612 2840-1596 9 5 435 246 946 536 512 290 1340 769 1840 1065l910 539 7 2099c5 1590 3 2102-5 2110-13 12-3712 2114-3718 2113-2 0-844-485-1871-1077zm5546-3168-7-2029-270-165c-149-91-277-167-285-168-12-3-14 219-11 1727 2 952 2 1731-1 1731s-630-355-1395-789l-1390-788-5-1749-5-1748-150-85-150-84-150 78c-82 43-156 82-162 88-10 7-13 371-13 1756l-1 1746-761 420c-525 289-960 539-1399 801l-636 381-8-165c-4-90-4-882 1-1759l7-1594-209 127c-115 70-244 148-286 173l-78 46v4045l63-31c712-359 1424-740 2449-1310 641-357 1171-649 1176-649s834 457 1843 1015c1008 558 1835 1013 1837 1011s0-917-4-2032z"/>
  <path d="m8463 3490c-63-13-116-45-160-94-46-53-63-101-63-183 0-184 188-306 384-249 181 53 255 281 140 431-53 70-199 116-301 95z"/>
  <path d="m11140 2055v-1335h440v232l60-55c104-96 245-162 404-188 118-19 339-7 453 25 303 84 529 295 628 587 76 220 74 510-4 737-83 240-284 448-521 536-220 83-483 92-685 25-107-36-157-63-247-136l-68-54v961h-460v-1335zm1155 204c188-41 346-198 401-399 24-87 24-262 1-350-67-254-279-420-537-420-263 0-478 165-546 420-23 87-24 253-1 340 61 231 236 389 467 421 61 8 140 4 215-12z"/>
  <path d="m15700 2850v-220h-320v-370h319l3-542 3-543 28-81c62-184 178-300 362-361 75-25 92-27 260-27 169 0 185 1 260 26 62 21 155 68 183 93 2 2-117 312-124 323-2 2-33-11-70-29-56-28-80-34-153-37-48-2-105 1-129 7-52 14-106 60-135 115-22 40-22 48-25 549l-3 507h511v370h-510v440h-460v-220z"/>
  <path d="m959 2660c-188-17-348-85-476-203l-43-40v223h-440v-1920h459l4 563c3 501 5 568 21 621 70 238 226 357 466 357 221 0 343-91 408-306 13-42 16-147 19-642l4-593h459v548c0 510 1 554 19 624 62 240 224 369 466 369 219 0 353-101 405-305 19-75 20-111 20-658v-578h460v603c0 660-4 723-58 874-16 45-44 107-63 139-45 76-139 172-215 217-234 140-618 148-889 17-91-44-198-121-246-178l-32-39-35 46c-75 101-180 174-318 220-81 27-128 35-264 45-25 2-84 0-131-4z"/>
  <path d="m4340 2659c-212-18-411-103-566-242-250-225-354-639-257-1027 81-326 329-574 663-661 107-28 325-37 438-19 158 25 296 90 404 189l58 53v-232h440v1920h-460v-211l-67 54c-85 68-138 98-230 131-122 43-265 59-423 45zm347-414c178-56 309-200 360-395 22-87 22-254-1-340-83-309-378-480-690-400-187 48-320 175-383 365-22 68-26 98-27 200 0 85 5 139 18 185 88 320 400 486 723 385z"/>
  <path d="m6654 2660c-366-30-669-242-795-555-40-100-58-186-66-310-28-463 251-843 704-957 75-19 114-23 268-22 152 0 193 4 260 22 109 29 250 102 320 165l58 52-6-120c-11-194-54-312-147-399-107-100-234-140-450-140-253 0-469 61-653 186-32 22-60 38-62 36-2-1-49-79-104-172-116-192-117-164 5-241 132-84 325-149 539-182 149-23 454-23 582 1 460 84 700 357 742 843 7 69 11 459 11 946v827h-440v-233l-42 40c-180 164-425 237-724 213zm326-402c92-17 194-70 264-138 105-100 159-228 159-375 1-250-136-437-383-521-79-27-302-27-380 0-207 71-334 206-375 401-18 88-19 142 0 230 50 236 228 382 510 419 39 5 136-2 205-16z"/>
  <path d="m9960 2659c-568-48-946-474-917-1034 7-125 39-266 85-367 63-138 191-291 316-377 77-53 226-120 331-148 91-24 117-27 295-27 171-1 206 2 283 21 163 42 297 116 405 225 60 61 142 172 142 193 0 11-329 205-347 205-6 0-21-15-33-34-57-94-212-193-334-215-134-24-279-2-399 61-317 166-385 665-128 940 106 113 246 171 416 171 183 0 322-69 445-221l35-42 165 96c91 52 169 100 174 104 13 12-48 109-113 181-141 157-344 248-601 269-63 5-117 9-120 8-3 0-48-4-100-9z"/>
  <path d="m14210 2659c-426-37-762-308-870-704-33-120-39-356-12-486 84-407 398-698 821-760 131-19 363-7 481 25 377 102 635 377 706 752 23 124 16 346-15 464-25 95-83 225-131 295-154 224-438 387-713 410-148 12-174 12-267 4zm274-405c140-34 273-141 339-273 99-198 87-466-28-646-103-161-300-256-504-242-151 10-267 63-366 168-107 114-154 244-155 425 0 272 146 487 385 564 95 31 214 32 329 4z"/>
  <path d="m8300 1680v-960h460v1920h-460v-960z"/>
 </g>
 <path transform="scale(.75)" d="m1081.1 1106-17.835-10.24-1.9572-466.57-101.59-56.559c-55.876-31.108-139.48-79.115-185.8-106.68-65.962-39.265-84.969-49.022-87.741-45.038-2.1592 3.1039-2.895 94.222-1.8878 233.78l1.6504 228.7-8.7996-5.7657c-4.8398-3.1711-21.552-13.508-37.139-22.971l-28.339-17.205v-266.87c0-146.78 1.0591-266.87 2.3536-266.87 6.2153 0 200.79 104.37 388.67 208.47l99.418 55.089 86.836-47.768c47.76-26.272 150.33-82.79 227.94-125.59 77.606-42.804 148.3-81.491 157.09-85.971l15.992-8.1451v536.37l-71.492 42.955v-229.66c0-188.91-0.8858-229.44-4.9919-228.44-2.7456 0.66911-87.361 47.78-188.03 104.69l-183.04 103.47-0.1058 233.29-0.1057 233.29-18.424 10.348c-10.133 5.6911-19.867 10.299-21.632 10.24-1.7645-0.059-11.234-4.7156-21.043-10.347z" fill="#069cdf" stroke="#069cdf" stroke-width="3.7627"/>
</svg>
